<svg width="74" height="62" viewBox="0 0 74 62" fill="none" xmlns="http://www.w3.org/2000/svg">
<path d="M59.9482 4.79688C61.4801 3.26521 63.9678 3.24863 65.5488 4.80957V4.80859L70.1729 9.43262C71.6629 10.9229 71.7093 13.3266 70.3125 14.874L70.1729 15.0205L27.959 57.2021L27.958 57.2031C26.4676 58.6935 24.0631 58.7401 22.5156 57.3428L22.3691 57.2031L3.82715 38.6621C2.33682 37.1718 2.29036 34.7672 3.6875 33.2197L3.82715 33.0732L8.46289 28.4375C9.95319 26.9472 12.3568 26.9008 13.9043 28.2979L14.0518 28.4375L25.1797 39.5654L59.9482 4.79688ZM62.7266 6.28418C62.0398 6.28418 61.3585 6.40325 60.7139 6.63574L60.4395 6.74219C59.8058 7.00691 59.2239 7.3798 58.7188 7.84277L58.5176 8.03516L25.1797 41.373L15.4824 31.6758H15.4814C14.9322 31.1229 14.2797 30.6833 13.5605 30.3828C12.8362 30.0802 12.0584 29.9238 11.2734 29.9238C10.4886 29.9239 9.71153 30.0803 8.9873 30.3828C8.35338 30.6477 7.77095 31.0202 7.26562 31.4834L7.07715 31.6641C6.58845 32.1469 6.18781 32.7105 5.89258 33.3291L5.77246 33.5977C5.46997 34.3219 5.31446 35.0989 5.31445 35.8838C5.31445 36.5707 5.43345 37.2517 5.66602 37.8965L5.77246 38.1699C6.07286 38.889 6.51274 39.5416 7.06543 40.0908V40.0918L20.9717 53.998C21.4519 54.4815 22.0113 54.878 22.625 55.1709L22.8936 55.291C23.6178 55.5936 24.3948 55.749 25.1797 55.749C25.8666 55.749 26.5476 55.63 27.1924 55.3975L27.4668 55.291C28.1859 54.9905 28.8385 54.5509 29.3877 53.998L66.9346 16.4521C69.2662 14.1205 69.2695 10.383 66.9453 8.04688H66.9463C66.4636 7.55826 65.8998 7.15752 65.2812 6.8623L65.0127 6.74219C64.2885 6.43966 63.5114 6.28423 62.7266 6.28418Z" fill="#E4E4E4" stroke="#190961" stroke-width="5.3473"/>
</svg>
