<svg width="82" height="90" viewBox="0 0 82 90" fill="none" xmlns="http://www.w3.org/2000/svg">
<path d="M10.25 0C4.592 0 0 4.5822 0 10.2281V19.7362C0.00218373 21.9237 0.590204 24.0709 1.7032 25.9555C2.81619 27.8401 4.41371 29.3936 6.3304 30.4553L29.9136 43.5391C24.9739 46.0275 21.0192 50.1052 18.6886 55.1132C16.3579 60.1212 15.7873 65.767 17.069 71.1385C18.3508 76.51 21.41 81.2934 25.7523 84.7159C30.0946 88.1384 35.4665 90 41 90C46.5335 90 51.9054 88.1384 56.2477 84.7159C60.59 81.2934 63.6492 76.51 64.931 71.1385C66.2127 65.767 65.6421 60.1212 63.3114 55.1132C60.9808 50.1052 57.0261 46.0275 52.0864 43.5391L75.6778 30.4635C77.5942 29.4001 79.1908 27.8448 80.3024 25.9587C81.414 24.0726 82.0001 21.9243 82 19.7362V10.2281C82 4.5822 77.408 0 71.75 0H10.25ZM8.2 10.2281C8.2 9.6856 8.41598 9.16529 8.80043 8.78166C9.18488 8.39803 9.70631 8.1825 10.25 8.1825H24.6V31.2326L10.3074 23.312C9.66861 22.9575 9.13639 22.4391 8.76586 21.8104C8.39534 21.1817 8.19997 20.4656 8.2 19.7362V10.2281ZM32.8 35.7739V8.1825H49.2V35.7739L41 40.3234L32.8 35.7739ZM57.4 31.2326V8.1825H71.75C72.2937 8.1825 72.8151 8.39803 73.1996 8.78166C73.584 9.16529 73.8 9.6856 73.8 10.2281V19.7362C73.8 20.4656 73.6047 21.1817 73.2341 21.8104C72.8636 22.4391 72.3314 22.9575 71.6926 23.312L57.4 31.2326ZM57.4 65.46C57.4 69.8003 55.6721 73.9628 52.5965 77.0318C49.521 80.1009 45.3496 81.825 41 81.825C36.6504 81.825 32.479 80.1009 29.4034 77.0318C26.3279 73.9628 24.6 69.8003 24.6 65.46C24.6 61.1198 26.3279 56.9573 29.4034 53.8882C32.479 50.8192 36.6504 49.095 41 49.095C45.3496 49.095 49.521 50.8192 52.5965 53.8882C55.6721 56.9573 57.4 61.1198 57.4 65.46Z" fill="#190961"/>
</svg>
