<svg width="67" height="60" viewBox="0 0 67 60" fill="none" xmlns="http://www.w3.org/2000/svg">
<path d="M59.9473 45.5474L60.041 45.561L60.126 45.6021C60.1786 45.6373 60.2198 45.6871 60.2441 45.7456C60.2563 45.775 60.2645 45.8061 60.2676 45.8374L60.2627 45.9321C60.2564 45.9634 60.2454 45.9932 60.2305 46.021L60.1748 46.0962L49.5957 56.6753C49.5354 56.7356 49.4534 56.77 49.3682 56.77H3.52637C3.49449 56.77 3.46278 56.7655 3.43262 56.7563L3.34766 56.7153C3.32113 56.6976 3.29734 56.6763 3.27734 56.6519L3.22949 56.5708C3.21743 56.5416 3.20914 56.5111 3.20605 56.48L3.21094 56.3853C3.21717 56.354 3.22827 56.3242 3.24316 56.2964L3.29883 56.2212L13.8779 45.6421C13.9233 45.5967 13.9809 45.5655 14.043 45.5532L14.1055 45.5474H59.9473ZM4.30176 56.1265H49.2363L59.1719 46.1909H14.2373L4.30176 56.1265ZM7.05176 24.3892H52.8955C52.9219 24.3892 52.9482 24.3926 52.9736 24.3989L53.0479 24.4272C53.0936 24.4518 53.133 24.4869 53.1621 24.5298V24.5308L60.2158 35.1108V35.1118C60.248 35.1601 60.2667 35.216 60.2695 35.2739C60.2709 35.3031 60.2691 35.3326 60.2627 35.3608L60.2324 35.4419C60.2188 35.4674 60.2014 35.4905 60.1816 35.5112L60.1133 35.5659C60.0634 35.5957 60.0063 35.6118 59.9482 35.6118H14.1045C14.0516 35.6118 13.9988 35.5987 13.9521 35.5737H13.9531C13.9298 35.5613 13.9081 35.5454 13.8887 35.5278L13.8369 35.4683L6.78418 24.8901V24.8892L6.74609 24.811L6.73047 24.7261C6.72908 24.6971 6.73102 24.6682 6.7373 24.6401L6.76758 24.5591C6.78128 24.5335 6.79852 24.5096 6.81836 24.4888L6.88672 24.4351C6.91162 24.4202 6.93811 24.4085 6.96582 24.4009L7.05176 24.3892ZM10.9756 30.0132L13.3242 33.5396L14.2754 34.9683H59.3418L56.0244 29.9868L53.6758 26.4604L52.7246 25.0327H7.6582L10.9756 30.0132ZM63.4736 3.23096L63.5674 3.24463C63.5973 3.25375 63.626 3.2671 63.6523 3.28467C63.6788 3.30237 63.7027 3.32377 63.7227 3.34814L63.7705 3.4292C63.7827 3.45867 63.7909 3.48959 63.7939 3.521L63.7891 3.61475C63.7829 3.64593 63.7717 3.67588 63.7568 3.70361L63.7012 3.77881L53.1221 14.3589C53.0618 14.4192 52.9798 14.4526 52.8945 14.4526H7.05273C7.02079 14.4526 6.98921 14.4482 6.95898 14.439L6.87402 14.3989C6.8475 14.3812 6.8237 14.3599 6.80371 14.3354L6.75586 14.2544C6.74365 14.2249 6.73548 14.194 6.73242 14.1626L6.7373 14.0688C6.74967 14.0067 6.77949 13.9487 6.82422 13.9038L6.8252 13.9048L17.4043 3.32568V3.32471C17.4496 3.27936 17.5074 3.24913 17.5693 3.23682L17.6318 3.23096H63.4736ZM16.8252 4.81299L7.82812 13.8101H52.7627L62.6992 3.87354H17.7637L16.8252 4.81299Z" fill="#E4E4E4" stroke="#190961" stroke-width="6.40961"/>
</svg>
