<svg width="37" height="40" viewBox="0 0 37 40" fill="none" xmlns="http://www.w3.org/2000/svg">
<path d="M18.8818 39.4229C18.5493 39.4229 18.2168 39.3817 17.8843 39.2993C17.5517 39.2168 17.2359 39.0918 16.9366 38.9242L2.97099 31.1932C2.33921 30.8274 1.84044 30.3373 1.47467 29.7228C1.10891 29.1083 0.926025 28.434 0.926025 27.6998V12.4374C0.926025 11.7059 1.10891 11.0329 1.47467 10.4184C1.84044 9.80389 2.33921 9.31309 2.97099 8.946L16.9366 1.21504C17.2359 1.04878 17.5517 0.924421 17.8843 0.841957C18.2168 0.759494 18.5493 0.718262 18.8818 0.718262C19.2143 0.718262 19.5468 0.760158 19.8793 0.843952C20.2119 0.927746 20.5277 1.05211 20.827 1.21703L34.7926 8.94799C35.4244 9.31376 35.9232 9.80455 36.2889 10.4204C36.6547 11.0362 36.8376 11.7092 36.8376 12.4394V27.7018C36.8376 28.4333 36.6547 29.107 36.2889 29.7228C35.9232 30.3386 35.4244 30.8288 34.7926 31.1932L20.827 38.9242C20.5277 39.0904 20.2119 39.2155 19.8793 39.2993C19.5468 39.383 19.2143 39.4243 18.8818 39.4229ZM13.0961 14.5841C13.8276 13.8193 14.6841 13.2122 15.6657 12.7626C16.6473 12.313 17.7193 12.0889 18.8818 12.0903C20.0443 12.0916 21.117 12.3164 22.0999 12.7646C23.0828 13.2128 23.9387 13.8193 24.6676 14.5841L30.6528 11.2423L18.8818 4.70844L7.11079 11.2423L13.0961 14.5841ZM16.8867 34.3355V27.8016C15.1576 27.336 13.7278 26.397 12.5973 24.9845C11.4667 23.572 10.9015 21.934 10.9015 20.0706C10.9015 19.7048 10.9181 19.3557 10.9513 19.0232C10.9846 18.6907 11.0511 18.3748 11.1508 18.0755L4.9162 14.5841V27.7018L16.8867 34.3355ZM18.8818 24.0608C19.9791 24.0608 20.9188 23.6697 21.7009 22.8877C22.4829 22.1056 22.8733 21.1666 22.872 20.0706C22.8706 18.9746 22.4803 18.0356 21.7009 17.2535C20.9214 16.4715 19.9818 16.0804 18.8818 16.0804C17.7818 16.0804 16.8428 16.4715 16.0647 17.2535C15.2867 18.0356 14.8956 18.9746 14.8916 20.0706C14.8876 21.1666 15.2787 22.1063 16.0647 22.8897C16.8508 23.6731 17.7898 24.0634 18.8818 24.0608ZM20.8769 34.3355L32.8474 27.7018V14.5841L26.6128 18.0755C26.7125 18.408 26.779 18.7326 26.8123 19.0491C26.8455 19.3657 26.8621 19.7062 26.8621 20.0706C26.8621 21.9327 26.2969 23.5707 25.1663 24.9845C24.0358 26.3984 22.606 27.3374 20.8769 27.8016V34.3355Z" fill="#201F24"/>
</svg>
